<?xml version="1.0" encoding="UTF-8"?>
<!-- 2021-08-31 11:33:16 Generated by QCAD 3.26.4.5 SVG Exporter -->
<svg width="14.0432mm" height="122mm" viewBox="-3.0216 -61 14.0432 122" version="1.1" xmlns="http://www.w3.org/2000/svg" style="stroke-linecap:round;stroke-linejoin:round;fill:none">
    <g transform="scale(1,-1)">
        <!-- Line -->
        <path d="M0,-60 L0,-3.6429 " style="stroke:#000000;stroke-width:0.2;"/>
        <!-- Line -->
        <path d="M0,2.7571 L0,60 " style="stroke:#000000;stroke-width:0.2;"/>
        <!-- Line -->
        <path d="M8,3.2 L8,60 " style="stroke:#000000;stroke-width:0.2;"/>
        <!-- Line -->
        <path d="M8,-60 L8,-3.2 " style="stroke:#000000;stroke-width:0.2;"/>
        <!-- Line -->
        <path d="M0,-3.6429 L2.0216,-2.4757 " style="stroke:#000000;stroke-width:0.2;"/>
        <!-- Line -->
        <path d="M-2.0216,1.5899 L0,2.7571 " style="stroke:#000000;stroke-width:0.2;"/>
        <!-- Line -->
        <path d="M8,-3.2 L10.0216,-2.0328 " style="stroke:#000000;stroke-width:0.2;"/>
        <!-- Line -->
        <path d="M5.9784,2.0328 L8,3.2 " style="stroke:#000000;stroke-width:0.2;"/>
        <!-- Line -->
        <path d="M-2.0216,1.5899 L2.0216,-2.4757 " style="stroke:#000000;stroke-width:0.2;"/>
        <!-- Line -->
        <path d="M5.9784,2.0328 L10.0216,-2.0328 " style="stroke:#000000;stroke-width:0.2;"/>
        <!-- Hatch -->
        <path d="M8,3.2 L8,60 L0,60 L0,2.7571 L-2.0216,1.5899 L2.0216,-2.4757 L0,-3.6429 L0,-60 L8,-60 L8,-3.2 L10.0216,-2.0328 L5.9784,2.0328 Z" style="fill:#fefefe;fill-rule:evenodd;"/>
    </g>
</svg>
