<?xml version="1.0" encoding="UTF-8"?>
<!-- 2021-08-31 11:39:29 Generated by QCAD 3.26.4.5 SVG Exporter -->
<svg width="9.0432mm" height="36.8mm" viewBox="-3.0216 -18.0678 9.0432 36.8" version="1.1" xmlns="http://www.w3.org/2000/svg" style="stroke-linecap:round;stroke-linejoin:round;fill:none">
    <g transform="scale(1,-1)">
        <!-- Line -->
        <path d="M0,2.7571 L0,17.0678 " style="stroke:#000000;stroke-width:0.2;"/>
        <!-- Line -->
        <path d="M0,-17.7322 L0,-3.6429 " style="stroke:#000000;stroke-width:0.2;"/>
        <!-- Line -->
        <path d="M3,3.2 L3,17.0678 " style="stroke:#000000;stroke-width:0.2;"/>
        <!-- Line -->
        <path d="M3,-17.7322 L3,-3.2 " style="stroke:#000000;stroke-width:0.2;"/>
        <!-- Line -->
        <path d="M0,-3.6429 L2.0216,-2.4757 " style="stroke:#000000;stroke-width:0.2;"/>
        <!-- Line -->
        <path d="M-2.0216,1.5899 L0,2.7571 " style="stroke:#000000;stroke-width:0.2;"/>
        <!-- Line -->
        <path d="M3,-3.2 L5.0216,-2.0328 " style="stroke:#000000;stroke-width:0.2;"/>
        <!-- Line -->
        <path d="M0.9784,2.0328 L3,3.2 " style="stroke:#000000;stroke-width:0.2;"/>
        <!-- Line -->
        <path d="M-2.0216,1.5899 L2.0216,-2.4757 " style="stroke:#000000;stroke-width:0.2;"/>
        <!-- Line -->
        <path d="M0.9784,2.0328 L5.0216,-2.0328 " style="stroke:#000000;stroke-width:0.2;"/>
        <!-- Hatch -->
        <path d="M3,3.2 L3,17.0678 L0,17.0678 L0,2.7571 L-2.0216,1.5899 L2.0216,-2.4757 L0,-3.6429 L0,-17.7322 L3,-17.7322 L3,-3.2 L5.0216,-2.0328 L0.9784,2.0328 Z" style="fill:#fefefe;fill-rule:evenodd;"/>
    </g>
</svg>
