<?xml version="1.0" encoding="UTF-8"?>
<!-- 2021-08-31 11:37:03 Generated by QCAD 3.26.4.5 SVG Exporter -->
<svg width="10.0432mm" height="65.2mm" viewBox="-3.0216 -32.3786 10.0432 65.2" version="1.1" xmlns="http://www.w3.org/2000/svg" style="stroke-linecap:round;stroke-linejoin:round;fill:none">
    <g transform="scale(1,-1)">
        <!-- Line -->
        <path d="M0,2.7571 L0,31.3786 " style="stroke:#000000;stroke-width:0.2;"/>
        <!-- Line -->
        <path d="M0,-31.8214 L0,-3.6429 " style="stroke:#000000;stroke-width:0.2;"/>
        <!-- Line -->
        <path d="M4,3.2 L4,31.3786 " style="stroke:#000000;stroke-width:0.2;"/>
        <!-- Line -->
        <path d="M4,-31.8214 L4,-3.2 " style="stroke:#000000;stroke-width:0.2;"/>
        <!-- Line -->
        <path d="M0,-3.6429 L2.0216,-2.4757 " style="stroke:#000000;stroke-width:0.2;"/>
        <!-- Line -->
        <path d="M-2.0216,1.5899 L0,2.7571 " style="stroke:#000000;stroke-width:0.2;"/>
        <!-- Line -->
        <path d="M4,-3.2 L6.0216,-2.0328 " style="stroke:#000000;stroke-width:0.2;"/>
        <!-- Line -->
        <path d="M1.9784,2.0328 L4,3.2 " style="stroke:#000000;stroke-width:0.2;"/>
        <!-- Line -->
        <path d="M-2.0216,1.5899 L2.0216,-2.4757 " style="stroke:#000000;stroke-width:0.2;"/>
        <!-- Line -->
        <path d="M1.9784,2.0328 L6.0216,-2.0328 " style="stroke:#000000;stroke-width:0.2;"/>
        <!-- Hatch -->
        <path d="M0,-31.8214 L4,-31.8214 L4,-3.2 L6.0216,-2.0328 L1.9784,2.0328 L4,3.2 L4,31.3786 L0,31.3786 L0,2.7571 L-2.0216,1.5899 L2.0216,-2.4757 L0,-3.6429 Z" style="fill:#fefefe;fill-rule:evenodd;"/>
    </g>
</svg>
